<?xml version="1.0" encoding="UTF-8" standalone="no"?><!DOCTYPE svg PUBLIC "-//W3C//DTD SVG 1.1//EN" "http://www.w3.org/Graphics/SVG/1.1/DTD/svg11.dtd"><svg width="100%" height="100%" viewBox="0 0 1667 1667" version="1.1" xmlns="http://www.w3.org/2000/svg" xmlns:xlink="http://www.w3.org/1999/xlink" xml:space="preserve" xmlns:serif="http://www.serif.com/" style="fill-rule:evenodd;clip-rule:evenodd;stroke-linejoin:round;stroke-miterlimit:2;"><rect id="ArtBoard1" x="0" y="0" width="1666.667" height="1666.667" style="fill:none;"/><circle cx="833.333" cy="833.333" r="312.5" style="fill:#dc2626;"/><path d="M833.333,29.218l106.595,433.069l-213.191,0l106.595,-433.069Z" style="fill:#dc2626;"/><path d="M833.333,1637.449l106.595,-433.069l-213.191,0l106.595,433.069Z" style="fill:#dc2626;"/><path d="M29.218,833.333l433.069,-106.595l0,213.191l-433.069,-106.595Z" style="fill:#dc2626;"/><path d="M1637.449,833.333l-433.069,106.595l0,-213.191l433.069,106.595Z" style="fill:#dc2626;"/><path d="M271.487,271.487l381.601,230.852l-150.749,150.749l-230.852,-381.601Z" style="fill:#dc2626;"/><path d="M271.487,1396.622l381.601,-230.852l-150.749,-150.749l-230.852,381.601Z" style="fill:#dc2626;"/><path d="M1395.18,271.487l-381.601,230.852l150.749,150.749l230.852,-381.601Z" style="fill:#dc2626;"/><path d="M1395.18,1396.622l-381.601,-230.852l150.749,-150.749l230.852,381.601Z" style="fill:#dc2626;"/></svg>